<svg xmlns="http://www.w3.org/2000/svg" fill="none" viewBox="0 0 24 24" id="Zapier--Streamline-Svg-Logos" height="800" width="1000">
  <desc>
    Zapier Streamline Icon: https://streamlinehq.com
  </desc>
  <path fill="#201515" d="m5.76785 13.179525 -0.0033 -0.0105 2.08945 -1.91285v-0.92165H4.501825v0.92165h2.002275l0.0033 0.008825 -2.06905 1.914525v0.92165h3.449325v-0.92165h-2.119825Zm4.177775 -2.93275c-0.38665 0 -0.701775 0.0583 -0.94535 0.17495 -0.2269 0.101625 -0.418 0.269125 -0.548575 0.4807 -0.1249 0.21295 -0.203325 0.44995 -0.230125 0.695375l1.017125 0.14295c0.0368 -0.216725 0.110375 -0.370325 0.22075 -0.46085 0.112925 -0.0852 0.249475 -0.13245 0.3901 -0.13575l0.047 0.00055c0.20645 0 0.3562 0.055175 0.4492 0.16555 0.09225 0.1104 0.13915 0.263275 0.13915 0.4647v0.10045h-0.977975c-0.497825 0 -0.85545 0.110375 -1.072875 0.331125 -0.21745 0.220775 -0.326 0.512175 -0.325625 0.8742 0 0.370875 0.10855 0.646825 0.325625 0.82785 0.217075 0.181 0.490075 0.270975 0.819 0.269875 0.408025 0 0.721925 -0.140375 0.941525 -0.4211 0.129775 -0.172525 0.2224 -0.37 0.272075 -0.58005h0.03695l0.1402 0.921675h0.921625v-2.33395c0 -0.48235 -0.12705 -0.855975 -0.3813 -1.1209 -0.25425 -0.2649 -0.6671 -0.39735 -1.2385 -0.39735Zm0.322375 2.877c-0.146275 0.121975 -0.3378 0.182675 -0.5762 0.182675 -0.196475 0 -0.332975 -0.0344 -0.4095 -0.1032 -0.0373 -0.03255 -0.06695 -0.072925 -0.086875 -0.118225 -0.01995 -0.0453 -0.02965 -0.09445 -0.028475 -0.143925 -0.002175 -0.046675 0.005175 -0.0933 0.021575 -0.137025 0.016425 -0.04375 0.041575 -0.083675 0.0739 -0.1174 0.034975 -0.0328 0.07625 -0.058175 0.1213 -0.074575 0.0338 -0.0123 0.0692 -0.0194 0.104975 -0.02105l0.997825 0.00015v0.063475c0.001925 0.0897 -0.016775 0.178675 -0.0546 0.26 -0.037925 0.08135 -0.093975 0.152875 -0.163925 0.2091Zm6.87045 -2.78925h-1.088825v3.7672h1.088825V10.334525Zm6.42895 0c-0.3076 0 -0.55005 0.108525 -0.7274 0.325625 -0.12725 0.156 -0.22405 0.3865 -0.290225 0.6915h-0.032025l-0.142425 -1.017125h-0.929925v3.76665h1.088925v-1.931625c0 -0.24355 0.057025 -0.430275 0.171075 -0.560175 0.11405 -0.129875 0.3245 -0.1948 0.631325 -0.1948h0.413325v-1.08005h-0.18265Zm-3.20265 0.123075c-0.25415 -0.151225 -0.57485 -0.22665 -0.961875 -0.226275 -0.6093 0 -1.086125 0.173475 -1.4305 0.520425 -0.34445 0.34695 -0.516575 0.825275 -0.516575 1.434925 -0.008775 0.368575 0.0717 0.733825 0.23455 1.0646 0.149075 0.29475 0.381225 0.539375 0.6678 0.70365 0.288375 0.166675 0.6315 0.2502 1.0293 0.25055 0.343975 0 0.6313 -0.052975 0.862 -0.158925 0.2169 -0.095175 0.405725 -0.244325 0.548625 -0.43325 0.13595 -0.18545 0.236975 -0.39415 0.29795 -0.6159l-0.938125 -0.2627c-0.039575 0.144175 -0.1156 0.275725 -0.220775 0.3819 -0.106025 0.105975 -0.283575 0.15895 -0.5326 0.15895 -0.2962 0 -0.516975 -0.0848 -0.662275 -0.254425 -0.10545 -0.122525 -0.17165 -0.297475 -0.200875 -0.5243h2.569025c0.010525 -0.10595 0.016025 -0.194825 0.016025 -0.26655v-0.23455c0.006175 -0.315125 -0.058875 -0.62755 -0.190375 -0.91395 -0.123125 -0.2609 -0.322275 -0.478475 -0.5713 -0.624175Zm-0.993325 0.67165c0.441525 0 0.6918 0.21725 0.75105 0.651775h-1.5618c0.024775 -0.144975 0.0849 -0.281625 0.174925 -0.3979 0.143175 -0.169625 0.35505 -0.25425 0.635825 -0.253875Zm-2.765575 -2.312975c-0.0819 -0.0028 -0.163525 0.010925 -0.24005 0.0403 -0.0765 0.0294 -0.146275 0.073875 -0.205325 0.130775 -0.058075 0.05745 -0.103725 0.126375 -0.133825 0.202375 -0.024075 0.060825 -0.03785 0.1251 -0.040875 0.1902l-0.000225 0.04895c-0.0029 0.082225 0.0111 0.164175 0.0413 0.240725 0.0301 0.076575 0.07575 0.1461 0.133925 0.20425 0.058175 0.05815 0.12775 0.103675 0.20435 0.13375 0.0613 0.024075 0.125975 0.037825 0.191475 0.040825l0.04925 0.000225c0.081725 0.003075 0.163175 -0.010875 0.2392 -0.041 0.076025 -0.030125 0.144925 -0.07575 0.202325 -0.13395 0.057025 -0.058825 0.1014 -0.12855 0.13075 -0.205 0.02345 -0.06115 0.0368 -0.1256 0.03965 -0.1908l0.0002 -0.049025c0.00375 -0.081325 -0.009475 -0.16255 -0.0389 -0.238475 -0.029425 -0.075925 -0.074275 -0.1449 -0.1318 -0.2025 -0.0576 -0.057575 -0.126475 -0.10255 -0.202425 -0.132 -0.075825 -0.029475 -0.157075 -0.042775 -0.238425 -0.039075l-0.000575 -0.00055Zm-2.249475 1.41505c-0.370875 0 -0.668925 0.11645 -0.894025 0.34935 -0.166725 0.17255 -0.289075 0.4301 -0.367025 0.77265h-0.03475l-0.1424 -1.01715H11.98825v4.8478h1.088825V13.18725h0.03975c0.0332 0.133125 0.0798 0.262575 0.13905 0.386325 0.09215 0.201575 0.243225 0.370525 0.4333 0.48455 0.197025 0.10755 0.41905 0.16105 0.643475 0.155075 0.4559 0 0.80295 -0.1775 1.041375 -0.53255 0.238425 -0.35505 0.357675 -0.850475 0.357675 -1.48625 0 -0.614075 -0.1154 -1.094775 -0.346 -1.4421 -0.2307 -0.347325 -0.5738 -0.520975 -1.029325 -0.520975Zm0.1104 2.72965c-0.118525 0.1717 -0.299475 0.26325 -0.542975 0.2747l-0.053125 0.001225c-0.11145 0.00515 -0.2226 -0.016325 -0.3241 -0.062675 -0.1016 -0.046375 -0.19065 -0.11625 -0.259725 -0.203875 -0.140975 -0.176975 -0.211225 -0.41925 -0.210825 -0.72685v-0.071725c0 -0.312375 0.070225 -0.551525 0.210825 -0.717475 0.140475 -0.165925 0.335175 -0.247975 0.583825 -0.24615 0.275275 0 0.4752 0.0874 0.59995 0.26215 0.12475 0.174775 0.1871 0.418525 0.1871 0.731275 0.00075 0.3234 -0.062525 0.576525 -0.1899 0.7594h-0.00105Z" stroke-width="0.25"></path>
  <path fill="#ff4f00" d="M4.0172 13.1797H0.25v0.92275h3.7672v-0.92275Z" stroke-width="0.25"></path>
</svg>